External Loads File
version=1
nRows=46
nColumns=13
Range=5.000000e-03-10 seconds
endheader
time 	forceRightX 	forceRightY 	forceRightZ 	pointRightX 	pointRightY 	pointRightZ 	forceLeftX 	forceLeftY 	forceLeftZ 	pointLeftX 	pointLeftY 	pointLeftZ 		
0.005000 -25.899261 175.577147 -0.000000 0.354459 0.460682 -0.110522 -34.889340 216.751060 -0.000000 0.148342 0.180871 -0.354078
0.010000 -26.602593 175.366587 -0.000000 0.354485 0.460730 -0.110532 -33.929249 217.724573 -0.000000 0.148291 0.180908 -0.354088
0.015000 -27.290108 175.177574 -0.000000 0.354502 0.460723 -0.110524 -33.023363 218.623004 -0.000000 0.148249 0.180929 -0.354082
0.020000 -27.567738 175.086034 -0.000000 0.354536 0.460205 -0.110513 -31.741738 219.481720 -0.000000 0.147664 0.180944 -0.355127
0.025000 -27.757522 175.047475 -0.000000 0.354585 0.460222 -0.110546 -30.509492 220.253644 -0.000000 0.146525 0.180839 -0.356142
0.030000 -28.913349 174.884596 -0.000000 0.354602 0.460220 -0.110541 -30.669858 220.780030 -0.000000 0.148121 0.180962 -0.354090
0.035000 -29.339207 174.861360 -0.000000 0.354621 0.460210 -0.110532 -30.094729 221.371660 -0.000000 0.148079 0.180989 -0.354085
0.040000 -29.668048 174.867534 -0.000000 0.354638 0.460193 -0.110544 -29.564673 221.939440 -0.000000 0.148036 0.181013 -0.354083
0.045000 -29.897514 174.894352 -0.000000 0.354731 0.460194 -0.110549 -29.046731 222.505430 -0.000000 0.148008 0.181028 -0.354083
0.050000 -30.111718 174.922278 -0.000000 0.354744 0.460203 -0.110545 -28.633365 223.042013 -0.000000 0.148003 0.181038 -0.354077
0.055000 -30.277992 174.954828 -0.000000 0.354740 0.460207 -0.110538 -28.280023 223.519004 -0.000000 0.147976 0.181058 -0.354071
0.060000 -30.430400 174.978002 -0.000000 0.354734 0.460203 -0.110518 -28.012339 223.917016 -0.000000 0.147960 0.181053 -0.354093
0.065000 -30.582361 174.977617 -0.000000 0.354727 0.460228 -0.110513 -27.815504 224.246753 -0.000000 0.147951 0.181065 -0.354086
0.070000 -30.744116 174.945795 -0.000000 0.354717 0.460241 -0.110508 -27.676152 224.527454 -0.000000 0.147944 0.181059 -0.354075
0.075000 -30.887158 174.886396 -0.000000 0.354697 0.460157 -0.110500 -27.542309 224.789109 -0.000000 0.147931 0.181059 -0.354078
0.080000 -31.071063 174.791798 -0.000000 0.354663 0.460175 -0.110515 -27.482154 225.046692 -0.000000 0.147924 0.181052 -0.354077
0.085000 -31.233052 174.683665 -0.000000 0.354629 0.460187 -0.110501 -27.411065 225.322214 -0.000000 0.147919 0.181055 -0.354084
0.090000 -31.376897 174.577181 -0.000000 0.354592 0.460211 -0.110485 -27.331265 225.617222 -0.000000 0.147916 0.181023 -0.354079
0.095000 -31.459191 174.499661 -0.000000 0.354560 0.460242 -0.110489 -27.192402 225.930579 -0.000000 0.147916 0.181044 -0.354072
0.100000 -31.487050 174.478026 -0.000000 0.354530 0.460269 -0.110511 -27.033877 226.230976 -0.000000 0.147914 0.181041 -0.354071
0.105000 -31.492599 174.540373 -0.000000 0.354387 0.460277 -0.110531 -26.948136 226.467512 -0.000000 0.147917 0.181019 -0.354079
0.110000 -31.316357 174.743069 -0.000000 0.354485 0.460301 -0.110537 -26.772603 226.636813 -0.000000 0.147904 0.181013 -0.354071
0.115000 -31.206145 175.055317 -0.000000 0.354298 0.460383 -0.110463 -26.844674 226.706007 -0.000000 0.147908 0.180995 -0.354073
0.120000 -30.951786 175.508442 -0.000000 0.354240 0.460403 -0.110519 -26.875697 226.721308 -0.000000 0.147900 0.180989 -0.354075
0.125000 -30.665411 176.050914 -0.000000 0.354179 0.460416 -0.110510 -26.970954 226.670080 -0.000000 0.147891 0.180987 -0.354073
0.130000 -30.388073 176.630215 -0.000000 0.354137 0.460429 -0.110501 -27.133655 226.549880 -0.000000 0.147887 0.180968 -0.354075
0.135000 -30.129534 177.210627 -0.000000 0.354107 0.460445 -0.110501 -27.334530 226.369128 -0.000000 0.147874 0.180969 -0.354069
0.140000 -29.904442 177.776677 -0.000000 0.354076 0.460443 -0.110516 -27.563720 226.144992 -0.000000 0.147872 0.180986 -0.354070
0.145000 -29.708995 178.319724 -0.000000 0.354066 0.460427 -0.110515 -27.789138 225.912808 -0.000000 0.147858 0.180979 -0.354070
0.150000 -29.556902 178.818210 -0.000000 0.354057 0.460431 -0.110511 -27.999393 225.706671 -0.000000 0.147827 0.180985 -0.354077
0.155000 -29.455849 179.252322 -0.000000 0.354066 0.460436 -0.110522 -28.185470 225.538687 -0.000000 0.147798 0.180999 -0.354068
0.160000 -29.413852 179.612248 -0.000000 0.354088 0.460429 -0.110531 -28.342413 225.403865 -0.000000 0.147757 0.181014 -0.354073
0.165000 -29.456293 179.884911 -0.000000 0.354111 0.460414 -0.110516 -28.470964 225.301300 -0.000000 0.147710 0.181041 -0.354074
0.170000 -29.602989 180.047664 -0.000000 0.354160 0.460381 -0.110515 -28.561863 225.234549 -0.000000 0.147656 0.181058 -0.354071
0.175000 -29.873756 180.075696 -0.000000 0.354231 0.460371 -0.110518 -28.638408 225.194970 -0.000000 0.147618 0.181101 -0.354060
0.180000 -30.232646 179.966335 -0.000000 0.354290 0.460339 -0.110530 -28.694339 225.173506 -0.000000 0.147564 0.181172 -0.354067
0.185000 -30.678042 179.725827 -0.000000 0.354353 0.460313 -0.110519 -28.793208 225.144193 -0.000000 0.147526 0.181179 -0.354046
0.190000 -31.129315 179.379078 -0.000000 0.354417 0.460291 -0.110524 -28.918336 225.069061 -0.000000 0.147491 0.181199 -0.354048
0.195000 -31.546569 178.947088 -0.000000 0.354475 0.460283 -0.110526 -29.103493 224.895202 -0.000000 0.147458 0.181216 -0.354039
0.200000 -31.885203 178.462765 -0.000000 0.354519 0.460251 -0.110516 -29.343464 224.604376 -0.000000 0.147432 0.181229 -0.354041
0.205000 -32.135808 177.965209 -0.000000 0.354554 0.460254 -0.110520 -29.625849 224.229053 -0.000000 0.147423 0.181249 -0.354039
0.210000 -32.270428 177.492503 -0.000000 0.354600 0.460234 -0.110517 -29.867466 223.847597 -0.000000 0.147421 0.181262 -0.354029
0.215000 -32.338197 177.050683 -0.000000 0.354622 0.460245 -0.110532 -30.061190 223.532805 -0.000000 0.147426 0.181252 -0.354038
0.220000 -32.317083 176.649117 -0.000000 0.354632 0.460243 -0.110541 -30.134891 223.334884 -0.000000 0.147432 0.181272 -0.354046
0.225000 -32.241830 176.291224 -0.000000 0.354642 0.460242 -0.110537 -30.135488 223.241306 -0.000000 0.147450 0.181260 -0.354039
0.230000 -32.113932 175.994507 -0.000000 0.354635 0.460247 -0.110546 -30.086029 223.218762 -0.000000 0.147467 0.181263 -0.354037
